<svg width="38" height="28" viewBox="0 0 38 28" fill="none" xmlns="http://www.w3.org/2000/svg">
<path fill-rule="evenodd" clip-rule="evenodd" d="M1.75 0C1.28587 0 0.840752 0.184374 0.512563 0.512563C0.184374 0.840752 0 1.28587 0 1.75L0 5.25C0 5.71413 0.184374 6.15925 0.512563 6.48744C0.840752 6.81563 1.28587 7 1.75 7C2.21413 7 2.65925 6.81563 2.98744 6.48744C3.31563 6.15925 3.5 5.71413 3.5 5.25V3.5H9.91667V24.5H8.75C8.28587 24.5 7.84075 24.6844 7.51256 25.0126C7.18437 25.3408 7 25.7859 7 26.25C7 26.7141 7.18437 27.1592 7.51256 27.4874C7.84075 27.8156 8.28587 28 8.75 28H14.5833C15.0475 28 15.4926 27.8156 15.8208 27.4874C16.149 27.1592 16.3333 26.7141 16.3333 26.25C16.3333 25.7859 16.149 25.3408 15.8208 25.0126C15.4926 24.6844 15.0475 24.5 14.5833 24.5H13.4167V3.5H19.8333V5.25C19.8333 5.71413 20.0177 6.15925 20.3459 6.48744C20.6741 6.81563 21.1192 7 21.5833 7C22.0475 7 22.4926 6.81563 22.8208 6.48744C23.149 6.15925 23.3333 5.71413 23.3333 5.25V1.75C23.3333 1.28587 23.149 0.840752 22.8208 0.512563C22.4926 0.184374 22.0475 0 21.5833 0H1.75ZM18.6667 13.4167C18.6667 12.9525 18.851 12.5074 19.1792 12.1792C19.5074 11.851 19.9525 11.6667 20.4167 11.6667H35.5833C36.0475 11.6667 36.4926 11.851 36.8208 12.1792C37.149 12.5074 37.3333 12.9525 37.3333 13.4167C37.3333 13.8808 37.149 14.3259 36.8208 14.6541C36.4926 14.9823 36.0475 15.1667 35.5833 15.1667H20.4167C19.9525 15.1667 19.5074 14.9823 19.1792 14.6541C18.851 14.3259 18.6667 13.8808 18.6667 13.4167ZM18.6667 21.5833C18.6667 21.1192 18.851 20.6741 19.1792 20.3459C19.5074 20.0177 19.9525 19.8333 20.4167 19.8333H35.5833C36.0475 19.8333 36.4926 20.0177 36.8208 20.3459C37.149 20.6741 37.3333 21.1192 37.3333 21.5833C37.3333 22.0475 37.149 22.4926 36.8208 22.8208C36.4926 23.149 36.0475 23.3333 35.5833 23.3333H20.4167C19.9525 23.3333 19.5074 23.149 19.1792 22.8208C18.851 22.4926 18.6667 22.0475 18.6667 21.5833Z" fill="black"/>
</svg>
